pedal_clip_forces.mot
version=1
nRows=103
nColumns=4
inDegrees=yes
endheader
time	PedalClip_calcn_r_Fx	PedalClip_calcn_r_Fy	PedalClip_calcn_r_Fz
0	22.3007726802885	-20.2289128444792	-0
0.00108345	22.9136984427713	-20.0216935580879	-0
0.00552275	23.5155495314024	-19.8499406156343	-0
0.00996205	24.106343312796	-19.713501764813	-0
0.01440135	24.6860998707625	-19.6122098911334	-0
0.01728547	25.2548457537254	-19.5458659443344	-0
0.02107447	25.8126107615715	-19.5141960403452	-0
0.02411339	26.3594319904641	-19.5169019550123	-0
0.02824686	26.8953424936731	-19.5536754474987	-0
0.03037538	27.4203632195379	-19.6241882090957	-0
0.03328301	27.9345096622865	-19.7281148455528	-0
0.03626079	28.4377831159857	-19.8651566887144	-0
0.03888456	28.9301693678784	-20.0350329220302	-0
0.04152036	29.4116406312198	-20.2374941052636	-0
0.04415616	29.8821503144447	-20.4723171592676	-0
0.04642162	30.3416347556572	-20.739326658256	-0
0.04868709	30.790016398799	-21.0383912088154	-0
0.05095255	31.2272026421898	-21.3694429913227	-0
0.05321801	31.6530929486015	-21.7324848421223	-0
0.05548347	32.0675785288593	-22.1276211289019	-0
0.05774893	32.470560992371	-22.5550952680985	-0
0.05959307	32.8619570741686	-23.0153518103853	-0
0.06143721	33.241735784843	-23.5091743063439	-0
0.06373397	33.6100019615163	-24.0378465068375	-0
0.06603073	33.9672946753884	-24.6035526008321	-0
0.06749907	34.3136095683297	-25.2161833732999	-0
0.06929203	34.6492308080836	-25.8580926068144	-0
0.07100136	34.974292068813	-26.5281226181697	-0
0.07271069	35.2881570333368	-27.222153608986	-0
0.07442002	35.5912604508603	-27.9352350686655	-0
0.07612934	35.8845913255604	-28.6619920628736	-0
0.07783867	36.168223379862	-29.3979277661314	-0
0.079548	36.4413945787916	-30.1427302405977	-0
0.08125733	36.7035310754731	-30.8985667093448	-0
0.08296666	36.9534376337602	-31.6635839779914	-0
0.08439611	37.1916593760906	-32.4364777719443	-0
0.08582556	37.4189158119643	-33.2144127314804	-0
0.087349	37.637855689047	-33.995123545882	-0
0.08887245	37.8508231963192	-34.7755234118873	-0
0.0903959	38.0606383084691	-35.5544931315624	-0
0.09191934	38.2682128122046	-36.3307779889619	-0
0.09326266	38.474231572611	-37.1055318198347	-0
0.09460597	38.6778977018446	-37.8789778796935	-0
0.09594928	38.8789218725883	-38.6524007028896	-0
0.09729259	39.076792736144	-39.4250945636417	-0
0.0986359	39.2714927908185	-40.1957733489237	-0
0.09997921	39.4629770896562	-40.963676278874	-0
0.10132252	39.6512012229114	-41.7294129852944	-0
0.10266583	39.8363409048612	-42.492455443695	-0
0.10387983	40.0189062255347	-43.2521407006057	-0
0.10509382	40.1990149201202	-44.008346279212	-0
0.10636294	40.3759721190871	-44.7619808208216	-0
0.10763205	40.5485264103791	-45.5136907046009	-0
0.10890117	40.7159001793035	-46.264323448595	-0
0.11017029	40.8777993639777	-47.0138669150583	-0
0.11133867	41.0344577291573	-47.7623956408727	-0
0.11250704	41.1858387813824	-48.5094498721445	-0
0.11367542	41.331755164756	-49.2547816984269	-0
0.1148438	41.4719142236935	-49.9979049916878	-0
0.11596723	41.6056450420955	-50.738734934088	-0
0.11709065	41.7322891767753	-51.4773846728276	-0
0.11821408	41.8508749719718	-52.214479140538	-0
0.1193375	41.9609733151427	-52.9507389173605	-0
0.12043866	42.0631550289558	-53.6870228329991	-0
0.12153982	42.1584283233704	-54.4238998515223	-0
0.12264098	42.2482272304764	-55.161798774355	-0
0.12374214	42.3341087282616	-55.9010844119242	-0
0.1248433	42.4170822733001	-56.6420273607827	-0
0.12594446	42.4978115525166	-57.3842603980691	-0
0.12704562	42.5761377312746	-58.1274758937345	-0
0.12814678	42.6521920765624	-58.8710198824998	-0
0.12924794	42.7264356454203	-59.614356600036	-0
0.1303491	42.7999663369826	-60.3569859079871	-0
0.13145918	42.8744923912622	-61.0986696426928	-0
0.13256926	42.9512846636117	-61.8391649260195	-0
0.13367934	43.0304479571541	-62.5784492147123	-0
0.13484653	43.1121445187439	-63.3162526216279	-0
0.13601373	43.1959354150058	-64.052145359282	-0
0.13718092	43.2816090070219	-64.7851629858678	-0
0.13834811	43.3691487208165	-65.5142825650927	-0
0.13951531	43.4581393403502	-66.2385990026605	-0
0.1406825	43.5475929317311	-66.9578146047055	-0
0.1418497	43.6369928544931	-67.6717216187862	-0
0.14301689	43.7260380494345	-68.3807577157517	-0
0.14373495	43.8145708646638	-69.0855764175897	-0
0.14467761	43.9025779674579	-69.7874233933062	-0
0.14548142	43.9901996881116	-70.4876075725426	-0
0.14656241	44.0776615569854	-71.1876703438039	-0
0.14764339	44.165096106444	-71.8888444581548	-0
0.14831114	44.2526160934733	-72.5923486579255	-0
0.14930435	44.3401875930615	-73.298898282564	-0
0.15029757	44.4277350855289	-74.0091702248349	-0
0.15129079	44.5151521616278	-74.7237810173648	-0
0.15246061	44.602377127742	-75.4436268003704	-0
0.15322365	44.6893094438509	-76.1694406332927	-0
0.15408885	44.7758619790657	-76.901979423227	-0
0.15519763	44.8620339176853	-77.6424450890147	-0
0.15630641	44.9480934974952	-78.3924417189773	-0
0.1574152	45.0343941739002	-79.1526296096767	-0
0.15803666	45.121419407337	-79.9231115031672	-0
0.15899448	45.2095307694652	-80.7035936957983	-0
0.15995229	45.2990284493374	-81.4935657758133	-0
0.1609101	45.3900035185953	-82.2923270995162	-0
